<mxfile host="app.diagrams.net" modified="2024-06-18T08:36:15.009Z" agent="Mozilla/5.0 (Windows NT 10.0; Win64; x64) AppleWebKit/537.36 (KHTML, like Gecko) Chrome/126.0.0.0 Safari/537.36 Edg/126.0.0.0" version="24.5.5" etag="xjn_8kSFmSkLiGKTlbEc" type="github">
  <diagram name="Page-1" id="BE7oDbZc0kPoSLKhVJ0j">
    <mxGraphModel>
      <root>
        <mxCell id="0" />
        <mxCell id="1" parent="0" />
      </root>
    </mxGraphModel>
  </diagram>
</mxfile>
